<svg width="827" height="723" viewBox="0 0 827 723" fill="none" xmlns="http://www.w3.org/2000/svg">
<path d="M788.229 200.907H723.735L522.788 0L490.595 32.208L659.288 200.928H166.861L335.581 32.208L303.357 0L102.464 200.907H37.9694C17.0267 200.907 0 217.917 0 238.86V338.729C0 359.672 17.0267 376.683 37.9694 376.683H51.4427L81.7813 722.176H744.435L774.804 376.683H788.241C809.184 376.683 826.179 359.672 826.179 338.729V238.86C826.174 217.933 809.179 200.907 788.236 200.907H788.229ZM702.677 676.627H123.504L97.1347 376.707H729.041L702.677 676.627ZM780.647 331.147H45.5533V246.459H780.647V331.147Z" fill="#323232"/>
<path d="M216.523 422.867H262.091V630.44H216.523V422.867Z" fill="#323232"/>
<path d="M390.336 422.867H435.872V630.44H390.336V422.867Z" fill="#323232"/>
<path d="M564.109 422.867H609.677V630.44H564.109V422.867Z" fill="#323232"/>
</svg>
