<svg width="62" height="71" viewBox="0 0 62 71" fill="none" xmlns="http://www.w3.org/2000/svg">
<path d="M30.9969 0C28.5474 0 26.5683 1.98301 26.5683 4.4375V7.1C16.4657 9.15234 8.85405 18.1105 8.85405 28.8438V32.366C8.85405 38.6617 6.70896 44.7771 2.79244 49.6861L0.730387 52.2793C-0.0722911 53.2777 -0.224523 54.6506 0.329048 55.8016C0.88262 56.9525 2.04512 57.6875 3.31833 57.6875H58.6755C59.9487 57.6875 61.1112 56.9525 61.6648 55.8016C62.2183 54.6506 62.0661 53.2777 61.2634 52.2793L59.2014 49.7C55.2848 44.7771 53.1398 38.6617 53.1398 32.366V28.8438C53.1398 18.1105 45.5282 9.15234 35.4255 7.1V4.4375C35.4255 1.98301 33.4465 0 30.9969 0ZM30.9969 13.3125C39.5634 13.3125 46.4969 20.26 46.4969 28.8438V32.366C46.4969 39.0084 48.4206 45.4844 51.9911 51.0312H10.0027C13.5732 45.4844 15.4969 39.0084 15.4969 32.366V28.8438C15.4969 20.26 22.4304 13.3125 30.9969 13.3125ZM39.854 62.125H30.9969H22.1398C22.1398 64.4824 23.067 66.7428 24.7277 68.4068C26.3884 70.0709 28.6442 71 30.9969 71C33.3496 71 35.6054 70.0709 37.2661 68.4068C38.9268 66.7428 39.854 64.4824 39.854 62.125Z" fill="#757B96"/>
</svg>
