<svg width="697" height="726" viewBox="0 0 697 726" fill="none" xmlns="http://www.w3.org/2000/svg">
<path d="M613.884 13.0004H217.134C212.087 13.06 207.059 13.6465 202.134 14.7504C194.43 13.661 186.664 13.0765 178.884 13.0004C137.685 12.905 97.9319 28.1793 67.3966 55.837C36.8614 83.4947 17.7398 121.547 13.7703 162.554C9.80088 203.562 21.269 244.575 45.9326 277.576C70.5962 310.577 106.682 333.192 147.134 341V643C147.2 661.545 154.596 679.312 167.709 692.425C180.822 705.538 198.589 712.935 217.134 713H613.884C623.076 713 632.179 711.19 640.672 707.672C649.165 704.154 656.881 698.998 663.381 692.498C669.881 685.998 675.038 678.281 678.555 669.788C682.073 661.295 683.884 652.193 683.884 643V83.0005C683.884 64.4353 676.509 46.6305 663.381 33.503C650.254 20.3754 632.449 13.0004 613.884 13.0004ZM60.1339 178.5C60.1339 154.954 67.1195 131.937 80.2065 112.362C93.2935 92.7868 111.894 77.5345 133.652 68.5351C155.411 59.5356 179.351 57.1937 202.442 61.8056C225.532 66.4176 246.736 77.7761 263.368 94.4435C280 111.111 291.314 132.338 295.878 155.438C300.441 178.539 298.049 202.473 289.004 224.213C279.958 245.953 264.667 264.521 245.065 277.567C225.462 290.613 202.43 297.55 178.884 297.5C163.268 297.5 147.806 294.421 133.382 288.437C118.959 282.454 105.857 273.684 94.8265 262.631C83.7962 251.578 75.0544 238.457 69.1013 224.021C63.1483 209.585 60.101 194.116 60.1339 178.5ZM637.134 643C637.134 649.167 634.684 655.08 630.324 659.441C625.964 663.801 620.05 666.25 613.884 666.25H217.134C210.968 666.25 205.054 663.801 200.694 659.441C196.333 655.08 193.884 649.167 193.884 643V343C225.434 340.173 255.506 328.337 280.52 308.902C305.533 289.467 324.434 263.252 334.971 233.38C345.508 203.508 347.237 171.236 339.953 140.409C332.669 109.581 316.677 81.497 293.884 59.5004H613.884C620.05 59.5004 625.964 61.95 630.324 66.3102C634.684 70.6704 637.134 76.5842 637.134 82.7504V643Z" fill="#EF4444" stroke="#EF4444" stroke-width="25"/>
<path d="M248.634 178.5C248.634 172.334 246.184 166.42 241.824 162.06C237.464 157.7 231.55 155.25 225.384 155.25H132.134C126.351 155.849 120.996 158.57 117.103 162.888C113.209 167.205 111.055 172.812 111.055 178.625C111.055 184.439 113.209 190.046 117.103 194.363C120.996 198.681 126.351 201.402 132.134 202H225.634C231.779 201.87 237.629 199.336 241.929 194.943C246.228 190.55 248.635 184.647 248.634 178.5Z" fill="#EF4444" stroke="#EF4444" stroke-width="25"/>
</svg>
