<svg width="577" height="320" viewBox="0 0 577 320" fill="none" xmlns="http://www.w3.org/2000/svg">
<path d="M384.075 64C366.375 64 352.075 49.7 352.075 32C352.075 14.3 366.375 0 384.075 0H544.075C561.775 0 576.075 14.3 576.075 32V192C576.075 209.7 561.775 224 544.075 224C526.375 224 512.075 209.7 512.075 192V109.3L342.675 278.6C330.175 291.1 309.875 291.1 297.375 278.6L192.075 173.3L54.675 310.6C42.175 323.1 21.875 323.1 9.375 310.6C-3.125 298.1 -3.125 277.8 9.375 265.3L169.375 105.3C181.875 92.8 202.175 92.8 214.675 105.3L320.075 210.7L466.775 64H384.075Z" fill="#22C55E"/>
</svg>
