<svg width="120" height="120" viewBox="0 0 120 120" fill="none" xmlns="http://www.w3.org/2000/svg">
<path d="M108.75 60C108.75 72.9293 103.614 85.3291 94.4715 94.4715C85.3291 103.614 72.9293 108.75 60 108.75C47.0707 108.75 34.6709 103.614 25.5285 94.4715C16.3861 85.3291 11.25 72.9293 11.25 60C11.25 47.0707 16.3861 34.6709 25.5285 25.5285C34.6709 16.3861 47.0707 11.25 60 11.25C72.9293 11.25 85.3291 16.3861 94.4715 25.5285C103.614 34.6709 108.75 47.0707 108.75 60ZM0 60C0 75.913 6.32141 91.1742 17.5736 102.426C28.8258 113.679 44.087 120 60 120C75.913 120 91.1742 113.679 102.426 102.426C113.679 91.1742 120 75.913 120 60C120 44.087 113.679 28.8258 102.426 17.5736C91.1742 6.32141 75.913 0 60 0C44.087 0 28.8258 6.32141 17.5736 17.5736C6.32141 28.8258 0 44.087 0 60ZM54.375 28.125V60C54.375 61.875 55.3125 63.6328 56.8828 64.6875L79.3828 79.6875C81.9609 81.4219 85.4531 80.7187 87.1875 78.1172C88.9219 75.5156 88.2187 72.0469 85.6172 70.3125L65.625 57V28.125C65.625 25.0078 63.1172 22.5 60 22.5C56.8828 22.5 54.375 25.0078 54.375 28.125Z" fill="#0CBC70"/>
</svg>
