<svg width="8" height="8" viewBox="0 0 8 8" fill="none" xmlns="http://www.w3.org/2000/svg">
<path d="M0.157045 6.85705C0.203527 6.90391 0.258828 6.94111 0.319757 6.96649C0.380687 6.99188 0.44604 7.00494 0.512046 7.00494C0.578052 7.00494 0.643405 6.99188 0.704334 6.96649C0.765264 6.94111 0.820564 6.90391 0.867045 6.85705L3.50705 4.21705L6.15705 6.86705C6.2512 6.9612 6.3789 7.01409 6.51205 7.01409C6.6452 7.01409 6.77289 6.9612 6.86705 6.86705C6.9612 6.77289 7.01409 6.6452 7.01409 6.51205C7.01409 6.3789 6.9612 6.2512 6.86705 6.15705L4.21705 3.50705L6.86705 0.857046C6.9612 0.762894 7.01409 0.635196 7.01409 0.502046C7.01409 0.368895 6.9612 0.241198 6.86705 0.147046C6.77289 0.0528942 6.6452 0 6.51205 0C6.3789 0 6.2512 0.0528942 6.15705 0.147046L3.50705 2.79705L0.857046 0.157045C0.762894 0.0628935 0.635196 0.0100002 0.502046 0.0100002C0.368895 0.0100002 0.241198 0.0628935 0.147046 0.157045C0.0528942 0.251197 0 0.378895 0 0.512046C0 0.645197 0.0528942 0.772894 0.147046 0.867045L2.79705 3.50705L0.157045 6.15705C0.0654319 6.25051 0.0141172 6.37617 0.0141172 6.50705C0.0141172 6.63792 0.0654319 6.76358 0.157045 6.85705Z" fill="#343434"/>
</svg>
