<svg width="229" height="243" viewBox="0 0 229 243" fill="none" xmlns="http://www.w3.org/2000/svg">
<path d="M228.365 79.0854C229.884 83.2153 228.602 87.8199 225.328 90.763L204.781 109.466C205.303 113.406 205.587 117.441 205.587 121.524C205.587 125.606 205.303 129.641 204.781 133.581L225.328 152.284C228.602 155.228 229.884 159.832 228.365 163.962C226.277 169.611 223.762 175.023 220.868 180.244L218.637 184.089C215.505 189.311 211.994 194.248 208.15 198.9C205.35 202.318 200.7 203.457 196.524 202.128L170.092 193.726C163.733 198.615 156.71 202.698 149.212 205.783L143.281 232.889C142.332 237.209 139.01 240.626 134.644 241.339C128.095 242.43 121.357 243 114.476 243C107.595 243 100.857 242.43 94.3084 241.339C89.9427 240.626 86.6209 237.209 85.6719 232.889L79.7402 205.783C72.2425 202.698 65.2193 198.615 58.8605 193.726L32.4763 202.176C28.3003 203.505 23.6499 202.318 20.8501 198.948C17.0063 194.296 13.4948 189.359 10.3628 184.137L8.1325 180.292C5.23783 175.07 2.72278 169.659 0.634815 164.01C-0.883703 159.88 0.397547 155.275 3.67185 152.332L24.2193 133.629C23.6973 129.641 23.4126 125.606 23.4126 121.524C23.4126 117.441 23.6973 113.406 24.2193 109.466L3.67185 90.763C0.397547 87.8199 -0.883703 83.2153 0.634815 79.0854C2.72278 73.4364 5.23783 68.0248 8.1325 62.8031L10.3628 58.958C13.4948 53.7363 17.0063 48.7994 20.8501 44.1473C23.6499 40.7294 28.3003 39.5902 32.4763 40.9193L58.908 49.3215C65.2668 44.4321 72.2899 40.3497 79.7876 37.2641L85.7193 10.1586C86.6684 5.83884 89.9902 2.42098 94.3559 1.70893C100.905 0.569642 107.643 0 114.524 0C121.405 0 128.143 0.569643 134.692 1.66146C139.057 2.37351 142.379 5.79136 143.328 10.1112L149.26 37.2166C156.758 40.3022 163.781 44.3846 170.139 49.2741L196.571 40.8718C200.747 39.5427 205.398 40.7294 208.197 44.0998C212.041 48.7519 215.553 53.6888 218.685 58.9105L220.915 62.7556C223.81 67.9773 226.325 73.3889 228.413 79.0379L228.365 79.0854ZM114.524 159.5C124.592 159.5 134.248 155.499 141.368 148.377C148.487 141.255 152.487 131.596 152.487 121.524C152.487 111.452 148.487 101.792 141.368 94.6705C134.248 87.5486 124.592 83.5476 114.524 83.5476C104.455 83.5476 94.7993 87.5486 87.6799 94.6705C80.5604 101.792 76.5608 111.452 76.5608 121.524C76.5608 131.596 80.5604 141.255 87.6799 148.377C94.7993 155.499 104.455 159.5 114.524 159.5Z" fill="#9092B0"/>
</svg>
