<svg width="71" height="63" viewBox="0 0 71 63" fill="none" xmlns="http://www.w3.org/2000/svg">
<path d="M24.4063 0C30.5356 0 35.5 4.96445 35.5 11.0938V13.3125C35.5 14.5328 34.5016 15.5312 33.2813 15.5312C27.152 15.5312 22.1875 10.5668 22.1875 4.4375V2.21875C22.1875 0.998437 23.1859 0 24.4063 0ZM7.76563 4.4375H14.4219C16.2662 4.4375 17.75 5.92129 17.75 7.76562C17.75 9.60996 16.2662 11.0938 14.4219 11.0938H7.76563C5.92129 11.0938 4.4375 9.60996 4.4375 7.76562C4.4375 5.92129 5.92129 4.4375 7.76563 4.4375ZM3.32813 14.4219H18.8594C20.7037 14.4219 22.1875 15.9057 22.1875 17.75C22.1875 19.5943 20.7037 21.0781 18.8594 21.0781H3.32813C1.48379 21.0781 0 19.5943 0 17.75C0 15.9057 1.48379 14.4219 3.32813 14.4219ZM4.4375 27.7344C4.4375 25.89 5.92129 24.4062 7.76563 24.4062H14.4219C16.2662 24.4062 17.75 25.89 17.75 27.7344C17.75 29.5787 16.2662 31.0625 14.4219 31.0625H7.76563C5.92129 31.0625 4.4375 29.5787 4.4375 27.7344ZM37.7188 2.21875C37.7188 0.998437 38.7172 0 39.9375 0C46.0668 0 51.0313 4.96445 51.0313 11.0938V13.3125C51.0313 14.5328 50.0328 15.5312 48.8125 15.5312C42.6832 15.5312 37.7188 10.5668 37.7188 4.4375V2.21875ZM55.4688 0C61.5981 0 66.5625 4.96445 66.5625 11.0938V13.3125C66.5625 14.5328 65.5641 15.5312 64.3438 15.5312C58.2145 15.5312 53.25 10.5668 53.25 4.4375V2.21875C53.25 0.998437 54.2484 0 55.4688 0ZM66.5625 22.1875V24.4062C66.5625 30.5355 61.5981 35.5 55.4688 35.5C54.2484 35.5 53.25 34.5016 53.25 33.2812V31.0625C53.25 24.9332 58.2145 19.9688 64.3438 19.9688C65.5641 19.9688 66.5625 20.9672 66.5625 22.1875ZM48.8125 19.9688C50.0328 19.9688 51.0313 20.9672 51.0313 22.1875V24.4062C51.0313 30.5355 46.0668 35.5 39.9375 35.5C38.7172 35.5 37.7188 34.5016 37.7188 33.2812V31.0625C37.7188 24.9332 42.6832 19.9688 48.8125 19.9688ZM35.5 22.1875V24.4062C35.5 30.5355 30.5356 35.5 24.4063 35.5C23.1859 35.5 22.1875 34.5016 22.1875 33.2812V31.0625C22.1875 24.9332 27.152 19.9688 33.2813 19.9688C34.5016 19.9688 35.5 20.9672 35.5 22.1875ZM0.485352 43.7648C0.221875 41.7264 1.80273 39.9375 3.85508 39.9375H67.1449C69.1973 39.9375 70.7781 41.7264 70.5285 43.7648C69.6549 50.7262 64.3715 56.1621 57.6875 57.4102V57.6875C57.6875 60.142 55.7045 62.125 53.25 62.125H17.75C15.2955 62.125 13.3125 60.142 13.3125 57.6875V57.4102C6.62852 56.1621 1.34512 50.7262 0.485352 43.7648Z" fill="#F8F8FA"/>
</svg>
