<svg width="531" height="583" viewBox="0 0 531 583" fill="none" xmlns="http://www.w3.org/2000/svg">
<path d="M514.996 247.562C512.99 241.021 508.917 235.308 503.387 231.281C497.857 227.254 491.169 225.13 484.329 225.228H315.329V169.228L473.662 174.895H474.329C480.772 174.86 486.941 172.285 491.497 167.729C496.052 163.173 498.627 157.004 498.662 150.562C498.675 147.321 498.029 144.112 496.764 141.129C495.499 138.146 493.641 135.45 491.304 133.206C488.966 130.962 486.197 129.216 483.165 128.074C480.132 126.932 476.899 126.417 473.662 126.562L315.329 132.228V70.895L474.662 48.5617C480.425 47.7324 485.693 44.845 489.492 40.4332C493.291 36.0215 495.364 30.3836 495.329 24.5617C495.384 23.2197 495.272 21.8761 494.996 20.5617C494.461 17.3381 493.271 14.2586 491.498 11.5138C489.725 8.7691 487.408 6.41763 484.689 4.60513C481.97 2.79264 478.908 1.55771 475.693 0.976857C472.477 0.396007 469.177 0.481613 465.996 1.22836L312.662 33.895C308.859 22.7162 301.222 13.2441 291.104 7.1566C280.986 1.0691 269.04 -1.241 257.381 0.635481C245.723 2.51196 235.105 8.45392 227.409 17.4089C219.712 26.3639 215.433 37.754 215.329 49.5617V54.5617L177.329 62.5617C172.699 52.109 164.614 43.5674 154.431 38.3711C144.249 33.1747 132.588 31.6401 121.407 34.0247C110.227 36.4094 100.207 42.5682 93.0305 51.4671C85.8539 60.366 81.9576 71.463 81.9956 82.895V83.2284L41.9956 91.5617C40.0785 92.0586 38.382 93.1808 37.1745 94.7505C35.967 96.3203 35.3175 98.2479 35.329 100.228V101.562C35.7134 103.757 36.938 105.715 38.7427 107.022C40.5475 108.329 42.7904 108.881 44.9956 108.562L81.9956 103.562V140.728L40.329 142.062C38.097 142.172 35.9914 143.131 34.4426 144.741C32.8937 146.352 32.0184 148.494 31.9956 150.728C31.9598 152.98 32.8157 155.155 34.3768 156.779C35.9378 158.402 38.0774 159.343 40.329 159.395L81.9956 160.728V225.395H45.829C38.9657 225.398 32.2842 227.602 26.765 231.681C21.2457 235.76 17.1792 241.501 15.1623 248.062C0.451164 295.455 -3.62134 345.511 3.23521 394.659C10.0918 443.807 27.7085 490.837 54.829 532.395L75.1623 563.062C78.9079 568.935 84.085 573.76 90.2073 577.084C96.3296 580.408 103.196 582.12 110.162 582.062H420.162C427.075 582.08 433.879 580.346 439.941 577.024C446.003 573.702 451.125 568.898 454.829 563.062L475.162 532.395C502.348 490.773 520.014 443.664 526.9 394.428C533.785 345.193 529.72 295.045 514.996 247.562ZM248.662 49.5617C248.662 45.1414 250.418 40.9022 253.544 37.7766C256.669 34.651 260.909 32.895 265.329 32.895C269.749 32.895 273.988 34.651 277.114 37.7766C280.24 40.9022 281.996 45.1414 281.996 49.5617V224.228H248.662V49.5617ZM181.996 89.5617L215.329 84.895V135.895L181.996 136.895V89.5617ZM181.996 164.562L215.329 165.562V225.228H181.996V164.562ZM115.329 82.895C115.329 78.4747 117.085 74.2355 120.211 71.1099C123.336 67.9843 127.575 66.2284 131.996 66.2284C136.416 66.2284 140.655 67.9843 143.781 71.1099C146.906 74.2355 148.662 78.4747 148.662 82.895V224.228H115.329V82.895ZM447.329 513.895L427.329 544.895C426.534 546.015 425.486 546.932 424.269 547.569C423.053 548.206 421.702 548.546 420.329 548.562H110.329C108.942 548.622 107.565 548.315 106.335 547.671C105.106 547.027 104.069 546.069 103.329 544.895L82.9956 513.895C58.7098 476.552 42.8236 434.38 36.4353 390.295C30.0469 346.209 33.3089 301.263 45.9956 258.562L483.329 257.562C496.559 300.341 500.178 345.515 493.926 389.856C487.674 434.196 471.706 476.608 447.162 514.062L447.329 513.895Z" fill="#343434"/>
</svg>
