<svg width="80" height="72" viewBox="0 0 80 72" fill="none" xmlns="http://www.w3.org/2000/svg">
<path d="M79.9583 35.4307C79.9583 37.9268 77.875 39.882 75.5139 39.882H71.0694L71.1667 62.0973C71.1667 62.4717 71.1389 62.8461 71.0972 63.2205V65.467C71.0972 68.5316 68.6111 71.0139 65.5417 71.0139H63.3194C63.1667 71.0139 63.0139 71.0139 62.8611 71C62.6667 71.0139 62.4722 71.0139 62.2778 71.0139L57.7639 71H54.4306C51.3611 71 48.875 68.5178 48.875 65.4531V62.125V53.25C48.875 50.7955 46.8889 48.8125 44.4306 48.8125H35.5417C33.0833 48.8125 31.0972 50.7955 31.0972 53.25V62.125V65.4531C31.0972 68.5178 28.6111 71 25.5417 71H22.2083H17.7778C17.5694 71 17.3611 70.9861 17.1528 70.9723C16.9861 70.9861 16.8194 71 16.6528 71H14.4306C11.3611 71 8.875 68.5178 8.875 65.4531V49.9219C8.875 49.7971 8.875 49.6584 8.88889 49.5336V39.8682H4.44444C1.94444 39.8682 0 37.9268 0 35.4168C0 34.1688 0.416667 33.0594 1.38889 32.0887L36.9861 1.10938C37.9583 0.138672 39.0694 0 40.0417 0C41.0139 0 42.125 0.277344 42.9583 0.970703L78.4306 32.1025C79.5417 33.0732 80.0972 34.1826 79.9583 35.4307Z" fill="#757B96"/>
</svg>
