<svg width="72" height="71" viewBox="0 0 72 71" fill="none" xmlns="http://www.w3.org/2000/svg">
<path d="M10.5469 10.4004L5.76562 5.68555C3.64219 3.5916 0 5.07539 0 8.0291V23.2969C0 25.1412 1.50469 26.625 3.375 26.625H18.8578C21.8672 26.625 23.3719 23.0334 21.2484 20.9395L16.9172 16.6684C21.7969 11.8564 28.5469 8.875 36 8.875C50.9062 8.875 63 20.8008 63 35.5C63 50.1992 50.9062 62.125 36 62.125C30.2625 62.125 24.9469 60.3639 20.5734 57.3547C18.5344 55.9541 15.7359 56.4395 14.3016 58.4502C12.8672 60.4609 13.3734 63.2205 15.4125 64.635C21.2625 68.6426 28.3641 71 36 71C55.8844 71 72 55.1082 72 35.5C72 15.8918 55.8844 0 36 0C26.0578 0 17.0578 3.97988 10.5469 10.4004ZM36 17.75C34.1297 17.75 32.625 19.2338 32.625 21.0781V35.5C32.625 36.3875 32.9766 37.2334 33.6094 37.8574L43.7344 47.8418C45.0562 49.1453 47.1937 49.1453 48.5016 47.8418C49.8094 46.5383 49.8234 44.4305 48.5016 43.1408L39.3609 34.1271V21.0781C39.3609 19.2338 37.8562 17.75 35.9859 17.75H36Z" fill="#757B96"/>
</svg>
