<svg width="427" height="350" viewBox="0 0 427 350" fill="none" xmlns="http://www.w3.org/2000/svg">
<path d="M0 174.682C0 163.962 8.68984 155.273 19.4091 155.273H407.591C418.311 155.273 427 163.962 427 174.682C427 185.401 418.311 194.091 407.591 194.091H19.4091C8.68984 194.091 0 185.401 0 174.682Z" fill="#343434"/>
<path d="M0 19.4091C0 8.68984 8.68984 0 19.4091 0H407.591C418.311 0 427 8.68984 427 19.4091C427 30.1283 418.311 38.8182 407.591 38.8182H19.4091C8.68984 38.8182 0 30.1283 0 19.4091Z" fill="#343434"/>
<path d="M0 329.955C0 319.235 8.68984 310.545 19.4091 310.545H407.591C418.311 310.545 427 319.235 427 329.955C427 340.674 418.311 349.364 407.591 349.364H19.4091C8.68984 349.364 0 340.674 0 329.955Z" fill="#343434"/>
</svg>
