<svg width="427" height="336" viewBox="0 0 427 336" fill="none" xmlns="http://www.w3.org/2000/svg">
<path d="M0 168C0 160.82 8.68984 155 19.4091 155H407.591C418.311 155 427 160.82 427 168C427 175.18 418.311 181 407.591 181H19.4091C8.68984 181 0 175.18 0 168Z" fill="#343434"/>
<path d="M0 13C0 5.8201 8.68984 0 19.4091 0H407.591C418.311 0 427 5.8201 427 13C427 20.1799 418.311 26 407.591 26H19.4091C8.68984 26 0 20.1799 0 13Z" fill="#343434"/>
<path d="M0 323C0 315.82 8.68984 310 19.4091 310H407.591C418.311 310 427 315.82 427 323C427 330.18 418.311 336 407.591 336H19.4091C8.68984 336 0 330.18 0 323Z" fill="#343434"/>
</svg>
