<svg width="53" height="63" viewBox="0 0 53 63" fill="none" xmlns="http://www.w3.org/2000/svg">
<path d="M19.9716 9.22168C17.0732 13.9504 15.4031 19.525 15.4031 25.4879C15.4031 39.0777 24.0708 50.643 36.1615 54.8447C34.45 55.233 32.6695 55.441 30.8339 55.441C17.4734 55.441 6.625 44.5275 6.625 31.0348C6.625 21.4803 12.063 13.2293 19.9854 9.22168H19.9716ZM28.5427 0.0693359C12.5737 1.24805 0 14.6576 0 31.0348C0 48.1885 13.8021 62.0973 30.8477 62.0973C37.4451 62.0973 43.5456 60.0172 48.5695 56.4672C48.8318 56.2869 49.0802 56.0928 49.3286 55.9125C49.9911 55.4133 50.626 54.8863 51.2471 54.3316C51.6198 53.9988 51.9787 53.666 52.3375 53.3193C53.0276 52.6398 53.207 51.5859 52.7654 50.7262C52.3237 49.8664 51.3714 49.3811 50.419 49.5475C49.9083 49.6307 49.3977 49.7139 48.887 49.7693C48.1969 49.8387 47.493 49.8941 46.7753 49.908C46.6096 49.908 46.4302 49.908 46.2646 49.908H46.2232C32.8628 49.8803 22.0419 38.9668 22.0419 25.5018C22.0419 17.9025 25.4786 11.1215 30.8891 6.64238C31.0271 6.51758 31.1789 6.40664 31.3307 6.28184C31.8828 5.83809 32.4625 5.42207 33.056 5.03379C33.4839 4.75645 33.9255 4.4791 34.381 4.22949C35.2229 3.74414 35.6508 2.77344 35.4438 1.83047C35.2367 0.8875 34.4362 0.180274 33.4701 0.0970704C32.9732 0.0554689 32.4901 0.0277342 31.9932 0.013867C31.6206 -2.11803e-07 31.2341 0 30.8615 0C30.406 0 29.9643 0.0138673 29.5089 0.0277345C29.1914 0.0416017 28.874 0.0554685 28.5565 0.0832029L28.5427 0.0693359Z" fill="#757B96"/>
</svg>
