<svg width="734" height="734" viewBox="0 0 734 734" fill="none" xmlns="http://www.w3.org/2000/svg">
<path d="M700 433.596H664.7C658.259 376.96 635.844 323.324 600.072 278.946C564.299 234.569 516.644 201.279 462.667 182.962C474.758 165.453 481.831 144.97 483.119 123.73C484.408 102.491 479.863 81.303 469.976 62.4605C460.089 43.618 445.238 27.8382 427.028 16.8289C408.819 5.81956 387.945 0 366.667 0C345.388 0 324.514 5.81956 306.305 16.8289C288.096 27.8382 273.244 43.618 263.357 62.4605C253.471 81.303 248.926 102.491 250.214 123.73C251.502 144.97 258.575 165.453 270.667 182.962C216.689 201.279 169.034 234.569 133.261 278.946C97.4889 323.324 75.0744 376.96 68.6333 433.596H33.3333C24.4928 433.596 16.0143 437.108 9.76311 443.359C3.51189 449.61 0 458.088 0 466.929C0 475.769 3.51189 484.248 9.76311 490.499C16.0143 496.75 24.4928 500.262 33.3333 500.262H70.2333L87.5667 653.596C87.7333 655.068 88.0006 656.527 88.3667 657.962C93.7979 679.58 106.296 698.764 123.876 712.467C141.456 726.17 163.11 733.606 185.4 733.596H547.933C570.232 733.602 591.893 726.156 609.474 712.44C627.056 698.724 639.548 679.526 644.967 657.896C645.3 656.462 645.567 654.996 645.767 653.529L663.1 500.196H700C708.841 500.196 717.319 496.684 723.57 490.432C729.821 484.181 733.333 475.703 733.333 466.862C733.333 458.022 729.821 449.543 723.57 443.292C717.319 437.041 708.841 433.529 700 433.529V433.596ZM366.667 66.929C376.556 66.929 386.223 69.8614 394.445 75.3555C402.668 80.8496 409.076 88.6585 412.861 97.7948C416.645 106.931 417.635 116.984 415.706 126.683C413.777 136.383 409.015 145.292 402.022 152.284C395.029 159.277 386.12 164.039 376.421 165.968C366.722 167.897 356.669 166.907 347.532 163.123C338.396 159.339 330.587 152.93 325.093 144.707C319.599 136.485 316.667 126.818 316.667 116.929C316.667 103.668 321.934 90.9504 331.311 81.5736C340.688 72.1968 353.406 66.929 366.667 66.929ZM579.8 643.596C577.668 650.373 573.427 656.293 567.695 660.49C561.962 664.688 555.038 666.944 547.933 666.929H185.4C178.295 666.944 171.371 664.688 165.639 660.49C159.906 656.293 155.665 650.373 153.533 643.596L137.333 500.262H596.033L579.8 643.596ZM135.7 433.596C143.676 378.024 171.42 327.192 213.844 290.422C256.267 253.652 310.526 233.411 366.667 233.411C422.807 233.411 477.066 253.652 519.49 290.422C561.913 327.192 589.658 378.024 597.633 433.596H135.7Z" fill="#EAB308"/>
</svg>
