<svg width="53" height="71" viewBox="0 0 53 71" fill="none" xmlns="http://www.w3.org/2000/svg">
<path d="M38.6458 8.875H44.1667C49.0388 8.875 53 12.8549 53 17.75V62.125C53 67.0201 49.0388 71 44.1667 71H8.83333C3.9612 71 0 67.0201 0 62.125V17.75C0 12.8549 3.9612 8.875 8.83333 8.875H14.3542H15.6792C16.7005 3.81348 21.1586 0 26.5 0C31.8414 0 36.2995 3.81348 37.3208 8.875H38.6458ZM8.83333 15.5312C7.61875 15.5312 6.625 16.5297 6.625 17.75V62.125C6.625 63.3453 7.61875 64.3438 8.83333 64.3438H44.1667C45.3812 64.3438 46.375 63.3453 46.375 62.125V17.75C46.375 16.5297 45.3812 15.5312 44.1667 15.5312H41.9583V18.8594C41.9583 20.7037 40.4815 22.1875 38.6458 22.1875H26.5H14.3542C12.5185 22.1875 11.0417 20.7037 11.0417 18.8594V15.5312H8.83333ZM26.5 14.4219C27.3785 14.4219 28.2211 14.0712 28.8423 13.4471C29.4635 12.8229 29.8125 11.9764 29.8125 11.0938C29.8125 10.2111 29.4635 9.36455 28.8423 8.74041C28.2211 8.11627 27.3785 7.76562 26.5 7.76562C25.6215 7.76562 24.7789 8.11627 24.1577 8.74041C23.5365 9.36455 23.1875 10.2111 23.1875 11.0938C23.1875 11.9764 23.5365 12.8229 24.1577 13.4471C24.7789 14.0712 25.6215 14.4219 26.5 14.4219Z" fill="#757B96"/>
</svg>
