<svg width="404" height="512" viewBox="0 0 404 512" fill="none" xmlns="http://www.w3.org/2000/svg">
<path opacity="0.954" fill-rule="evenodd" clip-rule="evenodd" d="M189 0C197 0 205 0 213 0C233.764 3.92198 248.098 15.7553 256 35.5C269.333 35.8333 282.667 36.1667 296 36.5C300.465 36.8128 303.632 38.9794 305.5 43C306 50.9931 306.166 58.9931 306 67C324.336 66.8334 342.67 67.0001 361 67.5C386.054 73.556 400.221 89.3893 403.5 115C404.167 232.667 404.167 350.333 403.5 468C402.221 484.067 394.721 496.234 381 504.5C375.172 507.712 369.172 510.212 363 512C255.667 512 148.333 512 41 512C28.6301 508.893 18.1301 502.56 9.50002 493C4.12052 485.529 1.12053 477.195 0.500025 468C-0.166675 350.333 -0.166675 232.667 0.500025 115C3.77903 89.3893 17.9457 73.556 43 67.5C61.33 67.0001 79.664 66.8334 98 67C97.834 58.9931 98 50.9931 98.5 43C100.368 38.9794 103.535 36.8128 108 36.5C121.013 36.3327 134.013 35.8327 147 35C155.016 15.9713 169.016 4.30468 189 0ZM197 23C218.317 23.4141 231.15 34.0807 235.5 55C237.373 57.2089 239.54 59.0422 242 60.5C254.996 60.9999 267.996 61.1666 281 61C281 77 281 93 281 109C228.333 109 175.667 109 123 109C123 93 123 77 123 61C135.338 61.1665 147.671 60.9999 160 60.5C161.333 59.8333 162.667 59.1667 164 58.5C167.497 51.3508 170.997 44.1842 174.5 37C180.58 29.8852 188.08 25.2185 197 23ZM47 92C64 92 81 92 98 92C97.833 103.338 98 114.672 98.5 126C99.667 129.833 102.167 132.333 106 133.5C137.774 134.656 169.607 135.156 201.5 135C233.713 135.152 265.879 134.652 298 133.5C301.585 131.584 304.085 128.751 305.5 125C306 114.005 306.167 103.005 306 92C323.003 91.8334 340.003 92.0001 357 92.5C367.842 95.3421 374.675 102.175 377.5 113C378.167 232.333 378.167 351.667 377.5 471C373.613 479.371 367.113 484.537 358 486.5C254 487.167 150 487.167 46 486.5C36.8866 484.537 30.3866 479.371 26.5 471C25.8333 351.333 25.8333 231.667 26.5 112C29.9444 101.721 36.7777 95.054 47 92Z" fill="#343434"/>
<path opacity="0.943" fill-rule="evenodd" clip-rule="evenodd" d="M141 171C155.372 169.862 160.872 176.196 157.5 190C144.331 203.502 130.831 216.669 117 229.5C112.62 233.548 107.954 237.215 103 240.5C99.2053 241.337 95.5393 241.004 92.0003 239.5C81.4333 229.603 71.6003 219.103 62.5003 208C60.1583 194.011 65.9913 188.511 80.0003 191.5C86.1543 197.821 92.4883 203.987 99.0003 210C113.046 196.95 127.046 183.95 141 171Z" fill="#343434"/>
<path opacity="0.965" fill-rule="evenodd" clip-rule="evenodd" d="M185 201C235.001 200.833 285.001 201 335 201.5C342.724 206.338 344.557 212.838 340.5 221C338.769 223.117 336.602 224.617 334 225.5C284.667 226.167 235.333 226.167 186 225.5C177.83 221.657 175.33 215.491 178.5 207C180.563 204.766 182.729 202.766 185 201Z" fill="#343434"/>
<path opacity="0.942" fill-rule="evenodd" clip-rule="evenodd" d="M143 268C156.594 268.417 161.427 275.084 157.5 288C140.302 304.866 122.802 321.366 105 337.5C99.6039 339.767 94.6039 339.1 89.9999 335.5C80.8329 325.667 71.6669 315.833 62.4999 306C59.5549 295.882 63.2219 289.882 73.4999 288C76.6289 287.829 79.4629 288.662 81.9999 290.5C87.8759 296.208 93.5419 302.041 98.9999 308C111.859 296.064 124.525 283.897 137 271.5C138.932 270.041 140.932 268.875 143 268Z" fill="#343434"/>
<path opacity="0.934" fill-rule="evenodd" clip-rule="evenodd" d="M187 298C235.668 297.833 284.334 298 333 298.5C342.252 302.316 344.752 308.816 340.5 318C338.158 321.254 334.991 323.088 331 323.5C283.667 324.167 236.333 324.167 189 323.5C177.796 320.596 174.63 313.763 179.5 303C181.67 300.677 184.17 299.01 187 298Z" fill="#343434"/>
<path opacity="0.943" fill-rule="evenodd" clip-rule="evenodd" d="M141 366C155.372 364.862 160.872 371.196 157.5 385C140.386 401.445 123.22 417.945 106 434.5C101.306 436.432 96.6393 436.432 92.0003 434.5C81.4333 424.603 71.6003 414.103 62.5003 403C60.1583 389.011 65.9913 383.511 80.0003 386.5C86.1813 392.848 92.5143 399.015 99.0003 405C113.046 391.95 127.046 378.95 141 366Z" fill="#343434"/>
<path opacity="0.967" fill-rule="evenodd" clip-rule="evenodd" d="M185 396C235.001 395.833 285.001 396 335 396.5C342.724 401.338 344.557 407.838 340.5 416C338.769 418.117 336.602 419.617 334 420.5C284.667 421.167 235.333 421.167 186 420.5C177.83 416.657 175.33 410.491 178.5 402C180.563 399.766 182.729 397.766 185 396Z" fill="#343434"/>
</svg>
