<svg width="215" height="246" viewBox="0 0 215 246" fill="none" xmlns="http://www.w3.org/2000/svg">
<path d="M199.643 0C191.964 0 138.214 15.375 138.214 84.5625V138.375C138.214 155.336 151.988 169.125 168.929 169.125H184.286V230.625C184.286 239.129 191.148 246 199.643 246C208.137 246 215 239.129 215 230.625V169.125V115.312V15.375C215 6.8707 208.137 0 199.643 0ZM30.7143 7.6875C30.7143 3.74766 27.7868 0.480469 23.8516 0.0480469C19.9163 -0.384375 16.4129 2.21016 15.5491 6.00586L1.00781 71.4938C0.335937 74.5207 0 77.5957 0 80.6707C0 102.724 16.8449 120.838 38.3929 122.808V230.625C38.3929 239.129 45.2556 246 53.75 246C62.2444 246 69.1071 239.129 69.1071 230.625V122.808C90.6551 120.838 107.5 102.724 107.5 80.6707C107.5 77.5957 107.164 74.5207 106.492 71.4938L91.9509 6.00586C91.0871 2.16211 87.4877 -0.384375 83.6004 0.0480469C79.7132 0.480469 76.7857 3.74766 76.7857 7.6875V72.1664C76.7857 74.7609 74.6741 76.875 72.0826 76.875C69.635 76.875 67.6194 75.0012 67.3795 72.5508L61.3806 7.01484C61.0446 3.02695 57.7333 0 53.75 0C49.7667 0 46.4554 3.02695 46.1194 7.01484L40.1685 72.5508C39.9286 75.0012 37.9129 76.875 35.4654 76.875C32.8739 76.875 30.7623 74.7609 30.7623 72.1664L30.7143 7.6875ZM53.894 80.7188H53.75H53.606L53.75 80.3824L53.894 80.7188Z" fill="#9092B0"/>
</svg>
