<svg width="700" height="700" viewBox="0 0 700 700" fill="none" xmlns="http://www.w3.org/2000/svg">
<path d="M350 0C156.719 0 0 156.719 0 350C0 543.281 156.719 700 350 700C543.281 700 700 543.281 700 350C700 156.719 543.281 0 350 0ZM350 640.625C189.531 640.625 59.375 510.469 59.375 350C59.375 189.531 189.531 59.375 350 59.375C510.469 59.375 640.625 189.531 640.625 350C640.625 510.469 510.469 640.625 350 640.625ZM387.266 331.875L367.422 327.266V222.344C397.109 226.406 415.469 245 418.594 267.812C418.984 270.937 421.641 273.203 424.766 273.203H459.844C463.516 273.203 466.406 270 466.094 266.328C461.328 217.656 421.25 186.406 367.734 181.016V155.469C367.734 152.031 364.922 149.219 361.484 149.219H339.531C336.094 149.219 333.281 152.031 333.281 155.469V181.25C277.969 186.641 234.687 217.188 234.687 274.219C234.687 327.031 273.594 352.5 314.453 362.266L333.75 367.188V478.672C299.219 474.063 279.844 455.625 275.859 430.781C275.391 427.813 272.734 425.625 269.688 425.625H233.594C229.922 425.625 227.031 428.75 227.344 432.422C230.859 475.391 263.438 514.922 332.969 520V544.531C332.969 547.969 335.781 550.781 339.219 550.781H361.406C364.844 550.781 367.656 547.969 367.656 544.453L367.5 519.688C428.672 514.297 472.422 481.563 472.422 422.813C472.344 368.594 437.891 344.375 387.266 331.875ZM333.672 319.219C329.297 317.969 325.625 316.797 321.953 315.313C295.547 305.781 283.281 290.391 283.281 270.547C283.281 242.187 304.766 226.016 333.672 222.344V319.219ZM367.422 478.906V374.453C369.844 375.156 372.031 375.703 374.297 376.172C411.25 387.422 423.672 403.047 423.672 427.031C423.672 457.578 400.703 475.938 367.422 478.906Z" fill="#757B96"/>
</svg>
