<svg width="663" height="663" viewBox="0 0 663 663" fill="none" xmlns="http://www.w3.org/2000/svg">
<path d="M331.133 662.267C265.641 662.267 201.62 642.846 147.166 606.461C92.711 570.075 50.2689 518.359 25.2062 457.853C0.143474 397.346 -6.41407 330.766 6.36278 266.533C19.1396 202.299 50.677 143.297 96.9868 96.9868C143.297 50.677 202.299 19.1396 266.533 6.36278C330.766 -6.41407 397.346 0.143474 457.853 25.2062C518.359 50.2689 570.075 92.711 606.461 147.166C642.846 201.62 662.267 265.641 662.267 331.133C662.17 418.926 627.251 503.094 565.173 565.173C503.094 627.251 418.926 662.17 331.133 662.267ZM331.133 33.3335C272.234 33.3335 214.658 50.7991 165.685 83.5218C116.712 116.245 78.5419 162.755 56.0022 217.17C33.4624 271.586 27.5649 331.464 39.0556 389.231C50.5463 446.999 78.909 500.062 120.557 541.71C162.205 583.358 215.268 611.721 273.036 623.211C330.803 634.702 390.681 628.805 445.097 606.265C499.512 583.725 546.022 545.555 578.745 496.582C611.468 447.609 628.933 390.033 628.933 331.133C628.845 252.179 597.442 176.484 541.612 120.655C485.783 64.8253 410.088 33.4217 331.133 33.3335Z" fill="#343434"/>
<path d="M414.467 381.134C414.414 398.798 407.373 415.725 394.882 428.216C382.391 440.707 365.465 447.747 347.8 447.8V481.467C347.8 485.887 346.044 490.126 342.919 493.252C339.793 496.378 335.554 498.134 331.133 498.134C326.713 498.134 322.474 496.378 319.348 493.252C316.223 490.126 314.467 485.887 314.467 481.467V447.8H272.8C268.38 447.8 264.141 446.044 261.015 442.919C257.889 439.793 256.133 435.554 256.133 431.134C256.133 426.713 257.889 422.474 261.015 419.348C264.141 416.223 268.38 414.467 272.8 414.467H347.8C356.641 414.467 365.119 410.955 371.37 404.704C377.621 398.453 381.133 389.974 381.133 381.134C381.133 372.293 377.621 363.815 371.37 357.563C365.119 351.312 356.641 347.8 347.8 347.8H314.467C296.786 347.8 279.829 340.776 267.326 328.274C254.824 315.772 247.8 298.815 247.8 281.134C247.8 263.452 254.824 246.496 267.326 233.993C279.829 221.491 296.786 214.467 314.467 214.467V180.8C314.467 176.38 316.223 172.141 319.348 169.015C322.474 165.889 326.713 164.134 331.133 164.134C335.554 164.134 339.793 165.889 342.919 169.015C346.044 172.141 347.8 176.38 347.8 180.8V214.467H389.467C393.887 214.467 398.126 216.223 401.252 219.348C404.377 222.474 406.133 226.713 406.133 231.134C406.133 235.554 404.377 239.793 401.252 242.919C398.126 246.044 393.887 247.8 389.467 247.8H314.467C305.626 247.8 297.148 251.312 290.896 257.563C284.645 263.815 281.133 272.293 281.133 281.134C281.133 289.974 284.645 298.453 290.896 304.704C297.148 310.955 305.626 314.467 314.467 314.467H347.8C365.465 314.52 382.391 321.56 394.882 334.051C407.373 346.542 414.414 363.469 414.467 381.134Z" fill="#343434"/>
</svg>
