<svg width="71" height="72" viewBox="0 0 71 72" fill="none" xmlns="http://www.w3.org/2000/svg">
<path d="M57.6875 28.8438C57.6875 35.2088 55.6213 41.0885 52.1406 45.8588L69.6965 63.4285C71.4299 65.1619 71.4299 67.977 69.6965 69.7104C67.9631 71.4438 65.148 71.4438 63.4146 69.7104L45.8588 52.1406C41.0885 55.6352 35.2088 57.6875 28.8438 57.6875C12.9104 57.6875 0 44.7771 0 28.8438C0 12.9104 12.9104 0 28.8438 0C44.7771 0 57.6875 12.9104 57.6875 28.8438ZM28.8438 48.8125C31.4661 48.8125 34.0627 48.296 36.4855 47.2925C38.9082 46.2889 41.1095 44.8181 42.9638 42.9638C44.8181 41.1095 46.2889 38.9082 47.2925 36.4855C48.296 34.0627 48.8125 31.4661 48.8125 28.8438C48.8125 26.2214 48.296 23.6248 47.2925 21.202C46.2889 18.7793 44.8181 16.578 42.9638 14.7237C41.1095 12.8694 38.9082 11.3986 36.4855 10.395C34.0627 9.39151 31.4661 8.875 28.8438 8.875C26.2214 8.875 23.6248 9.39151 21.202 10.395C18.7793 11.3986 16.578 12.8694 14.7237 14.7237C12.8694 16.578 11.3986 18.7793 10.395 21.202C9.39151 23.6248 8.875 26.2214 8.875 28.8438C8.875 31.4661 9.39151 34.0627 10.395 36.4855C11.3986 38.9082 12.8694 41.1095 14.7237 42.9638C16.578 44.8181 18.7793 46.2889 21.202 47.2925C23.6248 48.296 26.2214 48.8125 28.8438 48.8125Z" fill="#757B96"/>
</svg>
