<svg width="129" height="125" viewBox="0 0 129 125" fill="none" xmlns="http://www.w3.org/2000/svg">
<path d="M71.5181 4.39404C70.2233 1.70879 67.4873 0 64.4825 0C61.4777 0 58.766 1.70879 57.4468 4.39404L41.7389 36.6902L6.65853 41.8654C3.72703 42.3048 1.28411 44.3554 0.380227 47.1627C-0.523653 49.97 0.209222 53.0702 2.31013 55.1452L27.7654 80.3133L21.7558 115.881C21.2672 118.81 22.4887 121.788 24.9071 123.521C27.3256 125.255 30.5259 125.474 33.1642 124.083L64.5069 107.361L95.8496 124.083C98.4879 125.474 101.688 125.279 104.107 123.521C106.525 121.764 107.747 118.81 107.258 115.881L101.224 80.3133L126.679 55.1452C128.78 53.0702 129.537 49.97 128.609 47.1627C127.681 44.3554 125.262 42.3048 122.331 41.8654L87.226 36.6902L71.5181 4.39404Z" fill="#FFB100"/>
</svg>
