<?xml version="1.0" standalone="no"?>
<!DOCTYPE svg PUBLIC "-//W3C//DTD SVG 20010904//EN"
 "http://www.w3.org/TR/2001/REC-SVG-20010904/DTD/svg10.dtd">
<svg version="1.0" xmlns="http://www.w3.org/2000/svg"
 width="256.000000pt" height="256.000000pt" viewBox="0 0 256.000000 256.000000"
 preserveAspectRatio="xMidYMid meet">

<g transform="translate(0.000000,256.000000) scale(0.100000,-0.100000)"
fill="#000000" stroke="none">
<path d="M992 2433 c-50 -24 -75 -67 -80 -135 l-4 -58 -227 0 c-215 0 -229 -1
-271 -22 -65 -33 -90 -87 -90 -192 0 -95 22 -149 75 -185 30 -20 35 -29 35
-65 1 -22 11 -361 24 -752 l23 -712 27 -56 c32 -64 81 -109 145 -131 67 -23
1195 -23 1262 0 64 22 113 67 145 131 l27 56 23 712 c13 391 23 730 24 752 0
36 5 45 35 65 53 36 75 90 75 185 0 105 -25 159 -90 192 -42 21 -55 22 -296
22 l-252 0 -4 55 c-5 62 -26 97 -78 133 -32 21 -41 22 -264 22 -192 0 -237 -3
-264 -17z m480 -100 c11 -10 18 -30 18 -55 l0 -38 -240 0 -240 0 0 35 c0 22 8
43 20 55 19 19 33 20 222 20 173 0 204 -2 220 -17z m646 -215 c7 -7 12 -44 12
-95 0 -71 -3 -84 -19 -93 -13 -7 -291 -10 -831 -10 -540 0 -818 3 -831 10 -16
9 -19 22 -19 93 0 51 5 88 12 95 17 17 1659 17 1676 0z m-95 -400 c-2 -51 -13
-382 -23 -735 -11 -353 -23 -650 -27 -660 -14 -40 -48 -76 -87 -94 -38 -17
-76 -19 -606 -19 -530 0 -568 2 -606 19 -39 18 -73 54 -87 94 -4 10 -16 307
-27 660 -10 353 -21 684 -23 735 l-4 92 747 0 747 0 -4 -92z"/>
<path d="M878 1530 c-25 -20 -25 32 -7 -615 10 -364 12 -402 29 -419 23 -24
68 -15 78 17 11 29 -16 976 -27 1003 -13 29 -46 36 -73 14z"/>
<path d="M1633 1539 c-12 -4 -25 -18 -28 -31 -9 -41 -31 -972 -23 -995 10 -32
55 -41 78 -17 17 18 20 57 32 509 8 270 10 498 6 507 -12 25 -40 37 -65 27z"/>
<path d="M1242 1528 c-9 -9 -12 -137 -12 -514 0 -444 2 -504 16 -518 20 -20
48 -20 68 0 14 14 16 74 16 518 0 377 -3 505 -12 514 -7 7 -24 12 -38 12 -14
0 -31 -5 -38 -12z"/>
</g>
</svg>
