<svg width="63" height="71" viewBox="0 0 63 71" fill="none" xmlns="http://www.w3.org/2000/svg">
<path d="M42.75 17.75C42.75 14.8078 41.5647 11.986 39.455 9.90553C37.3452 7.82505 34.4837 6.65625 31.5 6.65625C28.5163 6.65625 25.6548 7.82505 23.545 9.90553C21.4353 11.986 20.25 14.8078 20.25 17.75C20.25 20.6922 21.4353 23.514 23.545 25.5945C25.6548 27.6749 28.5163 28.8437 31.5 28.8438C34.4837 28.8437 37.3452 27.6749 39.455 25.5945C41.5647 23.514 42.75 20.6922 42.75 17.75ZM13.5 17.75C13.5 13.0424 15.3964 8.52763 18.7721 5.19885C22.1477 1.87008 26.7261 0 31.5 0C36.2739 0 40.8523 1.87008 44.2279 5.19885C47.6036 8.52763 49.5 13.0424 49.5 17.75C49.5 22.4576 47.6036 26.9724 44.2279 30.3011C40.8523 33.6299 36.2739 35.5 31.5 35.5C26.7261 35.5 22.1477 33.6299 18.7721 30.3011C15.3964 26.9724 13.5 22.4576 13.5 17.75ZM6.93281 64.3438H56.0812C54.8297 55.5658 47.1797 48.8125 37.9406 48.8125H25.0875C15.8484 48.8125 8.19844 55.5658 6.94688 64.3438H6.93281ZM0 66.8814C0 53.2223 11.2219 42.1562 25.0734 42.1562H37.9266C51.7781 42.1562 63 53.2223 63 66.8814C63 69.1557 61.1297 71 58.8234 71H4.17656C1.87031 71 0 69.1557 0 66.8814Z" fill="#F8F8FA"/>
</svg>
